<svg id="Layer_1" data-name="Layer 1" xmlns="http://www.w3.org/2000/svg" xmlns:xlink="http://www.w3.org/1999/xlink" viewBox="0 0 1600 800"><defs><style>.cls-1{fill:none;}.cls-2{fill:url(#linear-gradient);}.cls-3{fill:#09001e;}.cls-4{fill:#fbfbfb;}.cls-5{fill:url(#linear-gradient-2);}.cls-6{fill:url(#linear-gradient-3);}.cls-7{fill:url(#linear-gradient-4);}.cls-8{fill:url(#linear-gradient-5);}.cls-9{fill:url(#linear-gradient-6);}.cls-10{fill:url(#linear-gradient-7);}.cls-11{fill:url(#linear-gradient-8);}.cls-12{fill:url(#linear-gradient-9);}.cls-13{fill:url(#linear-gradient-10);}.cls-14{fill:url(#linear-gradient-11);}.cls-15{fill:url(#linear-gradient-12);}.cls-16{fill:url(#linear-gradient-13);}.cls-17{opacity:0.1;}.cls-18{clip-path:url(#clip-path);}.cls-19{fill:#fff;}.cls-20{fill:url(#linear-gradient-14);}.cls-21{fill:url(#linear-gradient-15);}.cls-22{fill:url(#linear-gradient-16);}.cls-23{fill:url(#linear-gradient-17);}.cls-24{fill:url(#linear-gradient-18);}</style><linearGradient id="linear-gradient" x1="800" y1="662.03" x2="800" y2="328.5" gradientUnits="userSpaceOnUse"><stop offset="0" stop-color="#4235b6"/><stop offset="1" stop-color="#a952ff"/></linearGradient><linearGradient id="linear-gradient-2" x1="611.38" y1="182.84" x2="611.38" y2="275.84" gradientUnits="userSpaceOnUse"><stop offset="0" stop-color="#fbfbfb"/><stop offset="1" stop-color="#643eff"/></linearGradient><linearGradient id="linear-gradient-3" x1="783.33" y1="182.84" x2="783.33" y2="275.84" xlink:href="#linear-gradient-2"/><linearGradient id="linear-gradient-4" x1="839.09" y1="182.84" x2="839.09" y2="275.84" xlink:href="#linear-gradient-2"/><linearGradient id="linear-gradient-5" x1="986.47" y1="182.84" x2="986.47" y2="275.84" xlink:href="#linear-gradient-2"/><linearGradient id="linear-gradient-6" x1="902.5" y1="182.84" x2="902.5" y2="275.84" xlink:href="#linear-gradient-2"/><linearGradient id="linear-gradient-7" x1="698.06" y1="182.84" x2="698.06" y2="275.84" xlink:href="#linear-gradient-2"/><linearGradient id="linear-gradient-8" x1="359.58" y1="410.7" x2="359.58" y2="290.98" gradientUnits="userSpaceOnUse"><stop offset="0" stop-color="#4235b6"/><stop offset="1" stop-color="#c352ff"/></linearGradient><linearGradient id="linear-gradient-9" x1="568.19" y1="370.13" x2="568.19" y2="250.41" xlink:href="#linear-gradient-8"/><linearGradient id="linear-gradient-10" x1="800.08" y1="353.74" x2="800.08" y2="234.02" xlink:href="#linear-gradient-8"/><linearGradient id="linear-gradient-11" x1="1017.9" y1="366.23" x2="1017.9" y2="246.51" xlink:href="#linear-gradient-8"/><linearGradient id="linear-gradient-12" x1="1228.85" y1="410.53" x2="1228.85" y2="290.81" xlink:href="#linear-gradient-8"/><linearGradient id="linear-gradient-13" x1="798.24" y1="274.15" x2="798.24" y2="580.72" xlink:href="#linear-gradient"/><clipPath id="clip-path"><path class="cls-1" d="M272,430.76c37.2-5.63,75-10.86,112.3-15.58,12.06-1.47,15-8.37,15.65-12.35a9.47,9.47,0,0,0-1.94-8c-2-2.4-5.23-3.62-9.47-3.62a27.75,27.75,0,0,0-3.4.22c-22.09,2.68-32.82,4.08-54.67,7.1l-.25,0-.24.06a71.07,71.07,0,0,1-16,1.9c-13,0-23.17-3.94-28.79-11.1-5.16-6.57-6.36-15.67-3.58-27.05,8.06-32.93,35-55.16,70.35-58l.3,0c34.26-4.74,69.05-9,103.49-12.6l-5.37,36.84c-36.25,3.79-72.88,8.23-109,13.21-11.65,1.61-14.69,8.44-15.46,12.36a9.32,9.32,0,0,0,1.74,8.08c1.95,2.38,5,3.58,9.06,3.58a27.39,27.39,0,0,0,3.68-.27c21.47-3,32-4.33,53.49-7a84.66,84.66,0,0,1,11.56-.83c14.86,0,26.84,4.31,33.72,12.12,5.89,6.69,8.13,15.94,6.65,27.48-4.48,35.11-41.12,51.63-71.15,55.11-36.85,4.66-74.06,9.8-110.8,15.32Zm192.32,12c17.84-1.71,29-2.7,47.45-4.2l11.1-97.25,8.22,9.83c14.56,17.42,22.45,26.71,36.53,42.93,18-19,27.78-29.44,46.06-49.2l10.7-11.56L617,431.55c18.13-.94,29.33-1.44,47.74-2.11l7.91-153.23c-17.45.65-28,1.13-46.59,2.1-18.16,20.2-27.77,30.73-47.33,51.92l-4.24,4.59-4-4.79c-15.56-18.6-23.27-28-37.35-45.51-18.72,1.52-29.32,2.45-47.51,4.21ZM827.64,274c-12.86-.13-21.73-.19-30.86-.19-7.54,0-15.3,0-24.88.12-25.26,50.91-52.25,102.85-80.32,154.56,17.87-.56,29.59-.82,49.09-1.12,3.62-6.83,5.86-11.08,9.84-18.68L752,405.8l3.3,0q18.84-.13,37.66-.14c17.14,0,34.56.09,51.76.26l3.28,0,1.52,2.9c4,7.63,6.27,11.89,9.93,18.75,19.51.35,31.22.64,49,1.24C880.26,377,853.08,325,827.64,274Zm-49.81,99.22-9,0,4.08-8c9-17.72,13.32-26.39,22-44.17l4.92-10,4.94,10c8.69,17.61,13.05,26.29,22.21,44.22l4.12,8.06-9-.07c-10.2-.08-17.46-.11-25.17-.11C791.24,373.2,785.32,373.22,777.83,373.26ZM1062.77,437c18.31,0,32.49-4.78,39.92-13.47,5.65-6.6,7.62-15.72,5.84-27.09-4.85-31-29.48-50.38-67.6-53.07-21.65-1.6-32.2-2.29-53.75-3.54-13-.75-15-8.45-15.26-11.73a10.52,10.52,0,0,1,2.62-8.26c2.3-2.49,5.83-3.75,10.5-3.75.56,0,1.13,0,1.73.06,35.48,2.05,71.36,4.7,106.75,7.89l-4.82-36.82c-35.34-3.21-71.14-5.87-106.5-7.92H982l-.22,0a72,72,0,0,0-10-.71c-14.66,0-27.18,4.71-35.24,13.27-7.17,7.6-10.56,18.15-9.83,30.51,2.2,36.87,35.52,49.95,63.4,49.95h1.28c22,1.27,32.8,2,54.92,3.62,13,1,15.17,8.55,15.52,11.77a10.21,10.21,0,0,1-2.39,8.26c-2.23,2.49-5.71,3.75-10.33,3.75-.72,0-1.48,0-2.24-.09-36.62-2.54-73.82-4.68-110.67-6.35l2.08,36.72c38,1.72,76.47,3.93,114.51,6.57,3.36.3,6.72.46,10,.46Zm235.53-123.8c-16.92-2.67-27.19-4.22-43.08-6.48l11.64,59-7.66-1.09c-25.57-3.64-51.58-7-77.32-10l-4.11-.48-9.7-58.76c-17-2-27.3-3.11-43.57-4.75l21.79,154.05c18.34,1.84,29.48,3,47.26,5.1l-9.7-58.75,7.24.84c26.29,3,52.93,6.48,79.19,10.21l3.86.55,11.63,59c18.35,2.6,29.44,4.25,46.75,7Z"/></clipPath><linearGradient id="linear-gradient-14" x1="539.87" y1="509.95" x2="539.87" y2="625.43" xlink:href="#linear-gradient-2"/><linearGradient id="linear-gradient-15" x1="664.99" y1="509.95" x2="664.99" y2="625.43" xlink:href="#linear-gradient-2"/><linearGradient id="linear-gradient-16" x1="795.49" y1="509.95" x2="795.49" y2="625.43" xlink:href="#linear-gradient-2"/><linearGradient id="linear-gradient-17" x1="928.68" y1="509.95" x2="928.68" y2="625.43" xlink:href="#linear-gradient-2"/><linearGradient id="linear-gradient-18" x1="1054.76" y1="509.95" x2="1054.76" y2="625.43" xlink:href="#linear-gradient-2"/></defs><rect class="cls-1" width="1600" height="800"/><path class="cls-2" d="M1066.56,663.25c-74.21-9.66-168.85-15-266.48-15s-192.27,5.32-266.48,15l-2.47.32-83-40.86,8.37-53.85C397,576.43,359.68,583,359.28,583.11l-2.5.45L208.56,516.84l53.3-242.2,5.34-1c1.06-.21,106.74-20.2,266.44-33l1-6.72c.15-1.46.33-2.93.56-4.44l3-19.18,9-59.74,6.16-.8c66.59-8.59,154.21-13.33,246.74-13.33,92.18,0,179.56,4.71,246.06,13.25l6.13.78,14.08,90.45c105.59,8.56,186.7,20.14,228.2,26.76l4,.51,5,.73,19.39,3,13.72,2.06-1.57,2.07,56.38,240.81-148.3,66.75-2.51-.45c-.39-.07-37.63-6.66-96.93-14.22l8.37,53.83-83,40.85Z"/><path class="cls-3" d="M1381.87,512.08l-53.93-230.36s-2.09-.4-6.1-1.12l-.1-.56h-.06l-5.56-.84-13.85-2.12c-1.65-.26-3.31-.49-5-.74l-.08.12c-42.59-6.88-127.08-19.06-238-27.84l-4.71-30.27h0l-3.43-22-4.72-30.38-1.16-7.46h0l-.1-.6c-63.52-8.16-149.87-13.18-245-13.18-95.48,0-182.09,5.06-245.68,13.26l-8.06,53.63h0l-1.49,9.59-1.5,9.59c-.22,1.43-.39,2.82-.52,4.2l-2,13.39C376,261.21,268.74,281.72,268.74,281.72L218,512.08,357.84,575s41.72-7.43,108.45-15.68L457.16,618l75.37,37.09C604.63,645.69,698,640,800.08,640s195.45,5.66,267.55,15.05L1143,618l-5.87-37.71-3.25-20.93c66.58,8.24,108.2,15.65,108.2,15.65Z"/><path class="cls-4" d="M647.93,204.09c-8.38.53-12.57.81-20.94,1.41l-1.45,13.34c-9.48.68-14.21,1-23.68,1.82-5.67.47-9-1-8.36-5.61l1.8-14c.59-4.6,4.28-6.68,9.85-7.14,17.61-1.44,26.42-2.08,44.05-3.2.71-7.4,1.06-11.1,1.77-18.5-17.42,1.1-26.13,1.74-43.54,3.16-18.75,1.54-30.34,9.16-32.95,27.55-.79,5.59-1.19,8.39-2,14-2.61,18.4,7.55,23.86,27.07,22.26,18.12-1.48,27.18-2.14,45.31-3.29Z"/><path class="cls-4" d="M815.78,212.61c-17.37-.11-26.06-.09-43.43.11.32-18,.47-27,.79-45-8.23.09-12.34.16-20.56.32-.78,25.39-1.16,38.09-1.94,63.48,26.12-.53,39.19-.61,65.32-.45C815.89,223.68,815.85,220,815.78,212.61Z"/><path class="cls-4" d="M848.4,168c-8.22-.17-12.33-.24-20.55-.33.45,25.38.68,38.08,1.13,63.46,8.56.1,12.84.17,21.39.35C849.59,206.13,849.19,193.43,848.4,168Z"/><path class="cls-4" d="M982.14,237.76c8.54.63,12.81,1,21.35,1.68-2.26-18.1-3.39-27.15-5.66-45.25,10.8.9,16.2,1.38,27,2.4-1-7.43-1.58-11.15-2.63-18.57-29.52-2.79-44.3-4-73.87-5.82.7,7.4,1.05,11.1,1.76,18.5,10.8.68,16.21,1.05,27,1.86C979.1,210.64,980.12,219.68,982.14,237.76Z"/><path class="cls-4" d="M863.7,231.83c8.09.21,12.14.33,20.23.6.21,0,.3-.09.29-.28-.93-17.9-1.39-26.86-2.32-44.76,11.08.38,16.62.6,27.7,1.11a13.88,13.88,0,0,1,3.16.56q7.38,2.9,8,11.31c1,13.37,1.52,20.06,2.54,33.43a.3.3,0,0,0,.32.31c8.12.41,12.18.63,20.29,1.11.2,0,.29-.08.27-.28l-4.1-46.25a18.58,18.58,0,0,0-4.11-9.44c-5.3-5.5-10.87-8.4-16.78-8.7-23.2-1.17-34.81-1.61-58-2.22-.15,0-.25.1-.28.29,1,25.16,1.48,37.74,2.46,62.9A.29.29,0,0,0,863.7,231.83Z"/><path class="cls-4" d="M682,225.57c13-.63,19.51-.91,32.52-1.36,1.41,3.26,2.12,4.9,3.56,8.16,9-.3,13.46-.43,22.43-.64-11.31-25.1-16.73-37.62-27.07-62.6-9.36.35-14,.54-23.39,1-13.55,26-20.56,39-35.07,65.18,9-.53,13.45-.77,22.42-1.22C679.26,230.67,680.18,229,682,225.57Zm18.4-34.63c2.78,6.71,4.19,10.07,7.05,16.79-6.51.25-9.76.39-16.26.68C694.92,201.42,696.76,197.92,700.41,190.94Z"/><path class="cls-5" d="M593.55,236.72c-7.8,0-13-1.59-15.81-4.86-2.65-3.06-3.48-7.81-2.52-14.53l2-14c2.25-15.89,11.65-23.66,30.46-25.2,16.38-1.34,24.9-2,40.27-3l-1.24,13c-16.29,1-24.94,1.67-41.77,3.05-9.28.76-11.84,5.6-12.34,9.53l-1.8,13.95a7.38,7.38,0,0,0,1.56,6.1c1.6,1.81,4.1,2.69,7.65,2.69.66,0,1.36,0,2.09-.09,9.46-.77,14.19-1.14,23.66-1.82l2.28-.17,1.45-13.33c5.87-.42,9.75-.69,15.42-1.05l-2.52,26.29c-16.76,1.07-25.66,1.72-43,3.14-2.07.17-4,.26-5.8.26Z"/><path class="cls-6" d="M755.24,170.72c5.68-.11,9.47-.17,15.1-.24l-.78,45,2.83,0c10.49-.12,17.81-.17,25.8-.17,4.51,0,9.24,0,14.87.05l.13,12.95c-6.59,0-12.35-.06-17.76-.06-13.19,0-24.43.12-42,.47Z"/><path class="cls-7" d="M847.54,228.71c-5.92-.11-9.89-.18-15.86-.25l-1-58c5.63.07,9.43.13,15.1.24Z"/><path class="cls-8" d="M1000.34,236.42c-5.76-.47-9.72-.78-15.72-1.23L979.56,190l-2.28-.17c-10-.75-15.38-1.12-24.7-1.71l-1.23-13c26.89,1.71,41.33,2.85,68.41,5.4l1.84,13c-8.62-.81-14-1.28-23.54-2.08l-3.37-.28Z"/><path class="cls-9" d="M941.23,232.31c-5.67-.33-9.47-.54-15.32-.83l-2.37-31.31c-.51-6.64-3.89-11.36-9.78-13.67a17,17,0,0,0-4-.74c-11.1-.51-16.64-.73-27.74-1.11l-3-.11,2.34,45.06c-5.69-.19-9.48-.31-15.3-.46l-2.27-58c21.56.57,32.94,1,55.32,2.14,5.17.27,10,2.8,14.83,7.75a15.84,15.84,0,0,1,3.46,7.89Z"/><path class="cls-10" d="M659.81,232.26c12.71-23,19.56-35.73,32-59.48,7.7-.36,12.26-.55,19.87-.83,9.38,22.61,14.66,34.85,24.68,57.13-5.91.15-10.07.27-16.47.48l-3.55-8.16-1.87.06c-13.12.46-19.51.73-32.55,1.36l-1.55.08-4.6,8.5C669.47,231.72,665.36,231.94,659.81,232.26ZM698,189.67c-3.64,7-5.48,10.46-9.2,17.45l-2.26,4.25,4.81-.22c6.5-.29,9.74-.42,16.24-.67l4-.16L710,206.66c-2.85-6.71-4.25-10.07-7-16.77l-2.25-5.42Z"/><path class="cls-11" d="M462.27,285.54c-2.81,19.22-4.21,28.84-7,48.06q-56.61,5.85-113,13.63c-5.66.79-9.86,3.11-10.83,8-.87,4.43,2.65,5.66,8.35,4.87,21.41-2.95,32.13-4.35,53.58-6.95,32.11-4.47,62.76,8,58,44.91s-42.09,55.95-76,59.88q-59.37,7.5-118.5,16.48c4.23-19.41,6.35-29.11,10.57-48.52q58-8.81,116.18-16.16c5.84-.71,10.11-3,10.92-7.81.74-4.42-2.92-5.72-8.73-5C364,399.57,353.08,401,331.26,404c-32.29,7.5-64.1-5.36-54.92-42.91,8.74-35.74,38.52-59.22,75.23-62.19Q406.8,291.27,462.27,285.54Z"/><path class="cls-12" d="M623.48,273c22-1.17,33-1.66,54.94-2.45q-4.24,82.13-8.47,164.24c-23.58.85-35.36,1.38-58.92,2.63l6.72-88.79c-19.72,21.31-29.77,32-50.27,53.64-16.62-19.13-24.74-28.64-40.56-47.58q-5.08,44.51-10.16,89c-23.53,1.89-35.29,2.93-58.79,5.22q11.38-82.59,22.78-165.19c21.92-2.14,32.88-3.11,54.82-4.88,15.24,19,23.06,28.52,39.1,47.69C594.58,304.94,604.35,294.23,623.48,273Z"/><path class="cls-13" d="M831.06,268.59Q872.88,352.52,918,434.64c-24.72-.87-37.08-1.2-61.82-1.63-4.62-8.66-6.91-13-11.46-21.62q-44.69-.43-89.32-.12c-4.52,8.63-6.79,13-11.38,21.59-24.74.36-37.1.66-61.83,1.46Q727,352.21,768.48,268.5C793.51,268.29,806,268.31,831.06,268.59Zm-8.94,99.23c-9.06-17.74-13.51-26.6-22.25-44.29-8.66,17.66-13.08,26.51-22.07,44.23C795.53,367.67,804.39,367.68,822.12,367.82Z"/><path class="cls-14" d="M1093.58,282.12c2.51,19.2,3.76,28.79,6.27,48q-56.61-5.24-113.4-8.51c-5.7-.33-9.43,1.21-9.05,6,.34,4.38,4.37,6.35,10.1,6.68,21.54,1.24,32.31,1.95,53.83,3.55,36.09,2.54,66.77,20.18,72.63,57.69,6.16,39.51-29.36,49.36-61.66,46.42q-59.59-4.14-119.22-6.78l-2.7-47.74q58.5,2.58,116.88,6.64c5.86.43,9.65-1,9.12-5.85-.48-4.4-4.63-6.46-10.47-6.89-21.92-1.63-32.89-2.35-54.83-3.62-35.06.33-67.6-17.48-69.84-55.11-2.16-36.31,27.68-53.55,61.28-48.84Q1038.11,277,1093.58,282.12Z"/><path class="cls-15" d="M1339.61,475.31c-23.37-3.7-35.06-5.45-58.47-8.75-4.66-23.61-7-35.41-11.64-59q-39.43-5.61-79-10.2c3.88,23.51,5.81,35.26,9.69,58.76-23.46-2.74-35.2-4-58.7-6.37l-23.37-165.25c21.91,2.19,32.86,3.38,54.74,5.94,3.88,23.5,5.82,35.26,9.69,58.76q38.79,4.5,77.46,10c-4.65-23.61-7-35.41-11.63-59,21.83,3.08,32.73,4.71,54.52,8.16Z"/><path class="cls-16" d="M272,430.76c37.2-5.63,75-10.86,112.3-15.58,12.06-1.47,15-8.37,15.65-12.35a9.47,9.47,0,0,0-1.94-8c-2-2.4-5.23-3.62-9.47-3.62a27.75,27.75,0,0,0-3.4.22c-22.09,2.68-32.82,4.08-54.67,7.1l-.25,0-.24.06a71.07,71.07,0,0,1-16,1.9c-13,0-23.17-3.94-28.79-11.1-5.16-6.57-6.36-15.67-3.58-27.05,8.06-32.93,35-55.16,70.35-58l.3,0c34.26-4.74,69.05-9,103.49-12.6l-5.37,36.84c-36.25,3.79-72.88,8.23-109,13.21-11.65,1.61-14.69,8.44-15.46,12.36a9.32,9.32,0,0,0,1.74,8.08c1.95,2.38,5,3.58,9.06,3.58a27.39,27.39,0,0,0,3.68-.27c21.47-3,32-4.33,53.49-7a84.66,84.66,0,0,1,11.56-.83c14.86,0,26.84,4.31,33.72,12.12,5.89,6.69,8.13,15.94,6.65,27.48-4.48,35.11-41.12,51.63-71.15,55.11-36.85,4.66-74.06,9.8-110.8,15.32Zm192.32,12c17.84-1.71,29-2.7,47.45-4.2l11.1-97.25,8.22,9.83c14.56,17.42,22.45,26.71,36.53,42.93,18-19,27.78-29.44,46.06-49.2l10.7-11.56L617,431.55c18.13-.94,29.33-1.44,47.74-2.11l7.91-153.23c-17.45.65-28,1.13-46.59,2.1-18.16,20.2-27.77,30.73-47.33,51.92l-4.24,4.59-4-4.79c-15.56-18.6-23.27-28-37.35-45.51-18.72,1.52-29.32,2.45-47.51,4.21ZM827.64,274c-12.86-.13-21.73-.19-30.86-.19-7.54,0-15.3,0-24.88.12-25.26,50.91-52.25,102.85-80.32,154.56,17.87-.56,29.59-.82,49.09-1.12,3.62-6.83,5.86-11.08,9.84-18.68L752,405.8l3.3,0q18.84-.13,37.66-.14c17.14,0,34.56.09,51.76.26l3.28,0,1.52,2.9c4,7.63,6.27,11.89,9.93,18.75,19.51.35,31.22.64,49,1.24C880.26,377,853.08,325,827.64,274Zm-49.81,99.22-9,0,4.08-8c9-17.72,13.32-26.39,22-44.17l4.92-10,4.94,10c8.69,17.61,13.05,26.29,22.21,44.22l4.12,8.06-9-.07c-10.2-.08-17.46-.11-25.17-.11C791.24,373.2,785.32,373.22,777.83,373.26ZM1062.77,437c18.31,0,32.49-4.78,39.92-13.47,5.65-6.6,7.62-15.72,5.84-27.09-4.85-31-29.48-50.38-67.6-53.07-21.65-1.6-32.2-2.29-53.75-3.54-13-.75-15-8.45-15.26-11.73a10.52,10.52,0,0,1,2.62-8.26c2.3-2.49,5.83-3.75,10.5-3.75.56,0,1.13,0,1.73.06,35.48,2.05,71.36,4.7,106.75,7.89l-4.82-36.82c-35.34-3.21-71.14-5.87-106.5-7.92H982l-.22,0a72,72,0,0,0-10-.71c-14.66,0-27.18,4.71-35.24,13.27-7.17,7.6-10.56,18.15-9.83,30.51,2.2,36.87,35.52,49.95,63.4,49.95h1.28c22,1.27,32.8,2,54.92,3.62,13,1,15.17,8.55,15.52,11.77a10.21,10.21,0,0,1-2.39,8.26c-2.23,2.49-5.71,3.75-10.33,3.75-.72,0-1.48,0-2.24-.09-36.62-2.54-73.82-4.68-110.67-6.35l2.08,36.72c38,1.72,76.47,3.93,114.51,6.57,3.36.3,6.72.46,10,.46Zm235.53-123.8c-16.92-2.67-27.19-4.22-43.08-6.48l11.64,59-7.66-1.09c-25.57-3.64-51.58-7-77.32-10l-4.11-.48-9.7-58.76c-17-2-27.3-3.11-43.57-4.75l21.79,154.05c18.34,1.84,29.48,3,47.26,5.1l-9.7-58.75,7.24.84c26.29,3,52.93,6.48,79.19,10.21l3.86.55,11.63,59c18.35,2.6,29.44,4.25,46.75,7Z"/><g class="cls-17"><g class="cls-18"><rect class="cls-4" x="290.76" y="22.88" width="104.24" height="554.89" transform="translate(312.78 -154.49) rotate(45)"/><rect class="cls-4" x="922.76" y="9.14" width="104.24" height="554.89" transform="translate(488.18 -605.4) rotate(45)"/><rect class="cls-4" x="623.11" y="-56.56" width="85.16" height="672.92" transform="translate(392.89 -388.74) rotate(45)"/><rect class="cls-4" x="773.66" y="-36.14" width="32.9" height="672.92" transform="translate(443.77 -470.73) rotate(45)"/><rect class="cls-4" x="1200.39" y="-36.14" width="89.16" height="672.92" transform="translate(577 -792.36) rotate(45)"/><rect class="cls-4" x="1386.19" y="-0.78" width="32.9" height="672.92" transform="translate(648.19 -893.5) rotate(45)"/></g></g><path class="cls-19" d="M523.53,566c27-2.67,40.58-3.84,67.67-5.84-.59,11.34-.89,17-1.48,28.36Q539,592.26,488.4,597.83q3.8-48.9,7.58-97.81c12.93-1.42,19.4-2.1,32.34-3.37C526.41,524.37,525.45,538.24,523.53,566Z"/><path class="cls-19" d="M680.93,485.89c29.68-1.27,46.4,8.41,45.89,36.46-.15,8.52-.23,12.78-.39,21.31,1,27.72-24.07,40.17-48.44,39.68-11.58.5-17.37.77-28.94,1.39-30.42,1.6-47.22-7.09-45.83-35.19l1-21.33c0-27.2,23.65-41.07,48.42-41C664,486.64,669.63,486.37,680.93,485.89ZM678.84,555c8.87-.38,14.44-3.31,14.63-10.32.23-8.53.34-12.79.57-21.31.18-7-5.2-9.55-14-9.18-11.37.49-17.06.76-28.44,1.36-8.76.47-14.32,3.52-14.61,10.54-.35,8.53-.52,12.8-.87,21.33-.29,7,5.1,9.42,14,8.95C661.6,555.78,667.35,555.51,678.84,555Z"/><path class="cls-19" d="M787.78,511.72c-8.78,0-14.25,2.81-14.29,9.83-.06,8.52-.08,12.78-.14,21.29,0,7,5.45,9.69,14.32,9.65,25.05-.09,37.57,0,62.62.47.15,11.32.22,17,.37,28.31-25.22-.47-37.84-.56-63.07-.47-30.45.11-47.62-9.42-47.21-37.47.12-8.52.19-12.78.31-21.3.41-28,17.46-38.51,47.16-38.62,24.61-.09,36.92,0,61.53.46l.37,28.31C825,511.72,812.57,511.62,787.78,511.72Z"/><path class="cls-19" d="M944.27,487.27q25.35,50.34,51.23,100.41c-13.94-1-20.91-1.42-34.86-2.22-2.7-5.24-4-7.86-6.72-13.1-20.27-1.12-30.41-1.59-50.69-2.35-2.34,5-3.52,7.51-5.88,12.51-14-.49-20.94-.69-34.91-1q22.74-47.85,44.89-96C922.11,486.14,929.5,486.48,944.27,487.27ZM940.46,546c-5.47-10.77-8.18-16.14-13.59-26.87-4.71,10.26-7.08,15.4-11.86,25.69C925.19,545.21,930.28,545.45,940.46,546Z"/><path class="cls-19" d="M1038.21,562.77c27.07,2.32,40.6,3.65,67.62,6.63l2.2,28.43q-50.57-5.58-101.31-9.34l-5.1-97.58c13,1,19.45,1.48,32.4,2.59C1035.7,521.21,1036.54,535.06,1038.21,562.77Z"/><path class="cls-20" d="M499.82,503.74c9.07-1,15-1.62,24.06-2.51l-4.8,69.31,4.85-.48c25.51-2.51,38.76-3.67,62.91-5.48l-1.05,20.07c-30.9,2.33-62.11,5.2-92.9,8.54Z"/><path class="cls-21" d="M642.39,580.79c-14,0-23.41-2.78-28.85-8.49-4.68-4.92-6.71-12.3-6.21-22.55l1.06-21.34c0-25.52,22.86-37,44.06-37h.46c11.28-.6,16.91-.87,28.19-1.34,1.62-.07,3.21-.11,4.75-.11,14,0,23.72,2.9,29.57,8.85,5.09,5.19,7.48,12.88,7.28,23.53l-.38,21.3c.34,9.38-2.43,17.07-8.22,23.08-7.7,8-20.36,12.58-34.73,12.58l-1.3,0c-11.85.5-17.65.78-29.24,1.39Q645.5,580.79,642.39,580.79Zm39.3-70.73c-.58,0-1.18,0-1.79,0-11.4.49-17.09.76-28.48,1.36-15.63.82-18.31,9.43-18.52,14.48L632,547.27a11.84,11.84,0,0,0,3.09,9.05c2.74,2.86,7,4.25,12.94,4.25.73,0,1.49,0,2.27-.07,11.47-.61,17.21-.88,28.69-1.37,15.05-.64,18.4-8.14,18.57-14.32l.56-21.31a12.07,12.07,0,0,0-3.25-9.13C692.08,511.47,687.76,510.06,681.69,510.06Z"/><path class="cls-22" d="M846.49,577.07c-17.66-.31-29-.42-43.29-.42l-15.62,0h-.52c-17.08,0-28.57-3.22-35.11-9.86-5.17-5.25-7.61-12.91-7.45-23.43l.31-21.3c.35-24.11,13.23-34.45,43.06-34.56l15,0c14.21,0,25,.1,42.45.41l.27,20.07c-17.3-.31-28.45-.41-42.5-.41l-15.32,0c-15.93.06-18.36,8.75-18.39,13.92l-.14,21.3a12.42,12.42,0,0,0,3.48,9.18c3.08,3.1,7.92,4.61,14.79,4.61l15.48,0c14.44,0,25.39.1,43.24.42Z"/><path class="cls-23" d="M988.48,583.06c-8.9-.6-15.27-1-25.26-1.58l-6.71-13.1-2.36-.13c-20.51-1.14-30.47-1.6-50.76-2.35l-2.73-.11s-4.22,9-5.88,12.52c-10.22-.35-16.67-.55-25.89-.77,13.9-29.3,27.68-58.78,41-87.76,12.4.5,19.52.83,31.74,1.47C956.91,521.51,972.64,552.35,988.48,583.06Zm-65.35-65.68c-4.71,10.26-7.08,15.39-11.85,25.67l-2.6,5.59,6.16.26c10.16.42,15.25.66,25.41,1.18l7.1.36-3.22-6.34c-5.46-10.76-8.18-16.13-13.57-26.86l-3.85-7.65Z"/><path class="cls-24" d="M1103.54,593.19c-30.79-3.34-62-6.21-92.9-8.54L1006,495.36c8.88.67,14.84,1.15,24.15,1.94l4.19,69.27,3.54.3c26,2.23,39.24,3.52,64.13,6.25Z"/></svg>